<!DOCTYPE svg PUBLIC "-//W3C//DTD SVG 20010904//EN" "http://www.w3.org/TR/2001/REC-SVG-20010904/DTD/svg10.dtd">
<svg version="1.0" xmlns="http://www.w3.org/2000/svg" width="66px" height="99px" viewBox="0 0 660 990" preserveAspectRatio="xMidYMid meet">
<g id="layer101" fill="#000000" stroke="none">
 <path d="M0 495 l0 -495 330 0 330 0 0 495 0 495 -330 0 -330 0 0 -495z"/>
 </g>
<g id="layer102" fill="#3f48cc" stroke="none">
 <path d="M224 929 c-169 -65 -245 -277 -153 -428 l19 -32 105 72 c58 40 105 77 105 81 0 5 -7 25 -15 45 -8 19 -15 37 -15 39 0 2 29 4 65 4 36 0 65 -2 65 -4 0 -2 -11 -23 -25 -47 -14 -25 -48 -61 -80 -84 -65 -46 -70 -71 -26 -116 40 -39 82 -39 122 0 32 33 38 75 15 106 -13 17 -10 27 26 92 22 41 37 80 34 88 -4 12 -29 15 -130 15 -75 0 -127 -4 -131 -10 -4 -6 4 -35 16 -65 12 -30 21 -56 18 -58 -20 -17 -131 -88 -133 -85 -11 12 -26 77 -26 108 0 130 118 250 246 250 58 0 141 -38 178 -82 90 -104 86 -240 -10 -347 -52 -58 -102 -75 -197 -69 -50 3 -72 10 -99 30 -25 19 -38 24 -51 17 -15 -9 -17 -28 -17 -140 0 -138 7 -164 52 -205 69 -64 164 -76 241 -31 69 41 87 82 87 203 l0 97 -25 -23 c-22 -21 -25 -32 -25 -93 0 -85 -18 -119 -77 -148 -61 -30 -137 -10 -182 47 -18 23 -21 40 -21 129 l0 102 58 -20 c138 -47 292 23 356 162 32 71 29 179 -7 253 -35 71 -88 120 -161 147 -70 26 -135 26 -202 0z m148 -386 c22 -20 23 -41 1 -65 -20 -22 -51 -23 -75 -1 -22 20 -23 41 -1 65 20 22 51 23 75 1z"/>
 <path d="M362 500 c-14 -23 -41 -26 -62 -7 -12 10 -12 9 -1 -5 24 -32 91 -13 79 22 -2 6 -9 1 -16 -10z"/>
 </g>

</svg>